HIERARCHY
ROOT hip
{
  OFFSET 0 0 0
  CHANNELS 6 Xposition Yposition Zposition Zrotation Yrotation Xrotation
  JOINT abdomen
  {
    OFFSET 0 20.6881 -0.73152
    CHANNELS 3 Zrotation Xrotation Yrotation
    JOINT chest
    {
      OFFSET 0 11.7043 -0.48768
      CHANNELS 3 Zrotation Xrotation Yrotation
      JOINT neck
      {
        OFFSET 0 22.1894 -2.19456
        CHANNELS 3 Zrotation Xrotation Yrotation
        JOINT head
        {
          OFFSET -0.24384 7.07133 1.2192
          CHANNELS 3 Zrotation Xrotation Yrotation
          JOINT leftEye
          {
            OFFSET 4.14528 8.04674 8.04672
            CHANNELS 3 Zrotation Xrotation Yrotation
            End Site
            {
              OFFSET 1 0 0
            }
          }
          JOINT rightEye
          {
            OFFSET -3.6576 8.04674 8.04672
            CHANNELS 3 Zrotation Xrotation Yrotation
            End Site
            {
              OFFSET 1 0 0
            }
          }
        }
      }
      JOINT rCollar
      {
        OFFSET -2.68224 19.2634 -4.8768
        CHANNELS 3 Zrotation Xrotation Yrotation
        JOINT rShldr
        {
          OFFSET -8.77824 -1.95073 1.46304
          CHANNELS 3 Zrotation Xrotation Yrotation
          JOINT rForeArm
          {
            OFFSET -28.1742 -1.7115 0.48768
            CHANNELS 3 Zrotation Xrotation Yrotation
            JOINT rHand
            {
              OFFSET -22.5879 0.773209 7.07136
              CHANNELS 3 Zrotation Xrotation Yrotation
              JOINT rThumb1
              {
                OFFSET -1.2192 -0.487915 3.41376
                CHANNELS 3 Zrotation Xrotation Yrotation
                JOINT rThumb2
                {
                  OFFSET -3.37035 -0.52449 3.41376
                  CHANNELS 3 Zrotation Xrotation Yrotation
                  End Site
                  {
                    OFFSET -1.78271 -1.18214 1.43049
                  }
                }
              }
              JOINT rIndex1
              {
                OFFSET -7.75947 0.938293 5.60832
                CHANNELS 3 Zrotation Xrotation Yrotation
                JOINT rIndex2
                {
                  OFFSET -2.54057 -0.884171 1.56538
                  CHANNELS 3 Zrotation Xrotation Yrotation
                  End Site
                  {
                    OFFSET -1.62519 -0.234802 1.16502
                  }
                }
              }
              JOINT rMid1
              {
                OFFSET -8.24714 1.18213 3.41376
                CHANNELS 3 Zrotation Xrotation Yrotation
                JOINT rMid2
                {
                  OFFSET -3.10165 -0.590103 1.0647
                  CHANNELS 3 Zrotation Xrotation Yrotation
                  End Site
                  {
                    OFFSET -2.48547 -0.328903 0.83742
                  }
                }
              }
              JOINT rRing1
              {
                OFFSET -8.82822 0.546677 1.51678
                CHANNELS 3 Zrotation Xrotation Yrotation
                JOINT rRing2
                {
                  OFFSET -2.60934 -0.819778 -0.0198488
                  CHANNELS 3 Zrotation Xrotation Yrotation
                  End Site
                  {
                    OFFSET -2.33842 -0.294052 0.168128
                  }
                }
              }
              JOINT rPinky1
              {
                OFFSET -8.27202 -0.0477905 -0.4584
                CHANNELS 3 Zrotation Xrotation Yrotation
                JOINT rPinky2
                {
                  OFFSET -1.82734 -0.647385 -0.700984
                  CHANNELS 3 Zrotation Xrotation Yrotation
                  End Site
                  {
                    OFFSET -1.69225 -0.51767 -0.607171
                  }
                }
              }
            }
          }
        }
      }
      JOINT lCollar
      {
        OFFSET 2.68224 19.2634 -4.8768
        CHANNELS 3 Zrotation Xrotation Yrotation
        JOINT lShldr
        {
          OFFSET 8.77824 -1.95073 1.46304
          CHANNELS 3 Zrotation Xrotation Yrotation
          JOINT lForeArm
          {
            OFFSET 28.1742 -1.7115 0.48768
            CHANNELS 3 Zrotation Xrotation Yrotation
            JOINT lHand
            {
              OFFSET 22.5879 0.773209 7.07136
              CHANNELS 3 Zrotation Xrotation Yrotation
              JOINT lThumb1
              {
                OFFSET 1.2192 -0.487915 3.41376
                CHANNELS 3 Zrotation Xrotation Yrotation
                JOINT lThumb2
                {
                  OFFSET 3.37035 -0.52449 3.41376
                  CHANNELS 3 Zrotation Xrotation Yrotation
                  End Site
                  {
                    OFFSET 1.78271 -1.18214 1.43049
                  }
                }
              }
              JOINT lIndex1
              {
                OFFSET 7.75947 0.938293 5.60832
                CHANNELS 3 Zrotation Xrotation Yrotation
                JOINT lIndex2
                {
                  OFFSET 2.54057 -0.884171 1.56538
                  CHANNELS 3 Zrotation Xrotation Yrotation
                  End Site
                  {
                    OFFSET 1.62519 -0.234802 1.16502
                  }
                }
              }
              JOINT lMid1
              {
                OFFSET 8.24714 1.18213 3.41376
                CHANNELS 3 Zrotation Xrotation Yrotation
                JOINT lMid2
                {
                  OFFSET 3.10165 -0.590103 1.0647
                  CHANNELS 3 Zrotation Xrotation Yrotation
                  End Site
                  {
                    OFFSET 2.48547 -0.328903 0.83742
                  }
                }
              }
              JOINT lRing1
              {
                OFFSET 8.82822 0.546677 1.51678
                CHANNELS 3 Zrotation Xrotation Yrotation
                JOINT lRing2
                {
                  OFFSET 2.60934 -0.819778 -0.0198488
                  CHANNELS 3 Zrotation Xrotation Yrotation
                  End Site
                  {
                    OFFSET 2.33842 -0.294052 0.168128
                  }
                }
              }
              JOINT lPinky1
              {
                OFFSET 8.27202 -0.0477905 -0.4584
                CHANNELS 3 Zrotation Xrotation Yrotation
                JOINT lPinky2
                {
                  OFFSET 1.82734 -0.647385 -0.700984
                  CHANNELS 3 Zrotation Xrotation Yrotation
                  End Site
                  {
                    OFFSET 1.69225 -0.51767 -0.607171
                  }
                }
              }
            }
          }
        }
      }
    }
  }
  JOINT rButtock
  {
    OFFSET -8.77824 4.35084 1.2192
    CHANNELS 3 Zrotation Xrotation Yrotation
    JOINT rThigh
    {
      OFFSET 0 -1.70687 -2.19456
      CHANNELS 3 Zrotation Xrotation Yrotation
      JOINT rShin
      {
        OFFSET 0 -36.8199 0.73152
        CHANNELS 3 Zrotation Xrotation Yrotation
        JOINT rFoot
        {
          OFFSET 0.73152 -45.1104 -5.12064
          CHANNELS 3 Zrotation Xrotation Yrotation
          End Site
          {
            OFFSET -1.1221 -3.69964 12.103
          }
        }
      }
    }
  }
  JOINT lButtock
  {
    OFFSET 8.77824 4.35084 1.2192
    CHANNELS 3 Zrotation Xrotation Yrotation
    JOINT lThigh
    {
      OFFSET 0 -1.70687 -2.19456
      CHANNELS 3 Zrotation Xrotation Yrotation
      JOINT lShin
      {
        OFFSET 0 -36.8199 0.73152
        CHANNELS 3 Zrotation Xrotation Yrotation
        JOINT lFoot
        {
          OFFSET -0.73152 -45.1104 -5.12064
          CHANNELS 3 Zrotation Xrotation Yrotation
          End Site
          {
            OFFSET 1.1221 -3.69964 12.103
          }
        }
      }
    }
  }
}
MOTION
Frames:	4
Frame Time:	0.03333
-22.4513 69.2474 -133.476 3.9681000000000006 6.7917 8.4409 -2.8038799999999995 21.6223 -4.48289 5.05341 -12.428 -0.832657 -7.065410000000001 11.4 -6.49709 4.923870000000001 -28.633799999999997 -11.1819 -0.0 0.0 0.0 -0.0 0.0 0.0 -1.38726e-13 4.0997099999999994e-13 -1.0604900000000002e-13 -3.84837 4.833920000000001 85.3168 -28.2053 -39.3074 82.5963 -0.0104163 -3.13137 -0.440457 2.32117e-09 -2.20324e-09 -4.3741e-09 4.02144e-09 -3.79666e-09 -7.56195e-09 2.32117e-09 -2.20324e-09 -4.37411e-09 7.730909999999999 5.47488 0.417314 2.32117e-09 -2.20324e-09 -4.37411e-09 2.90554 0.965183 0.102902 2.32118e-09 -2.20324e-09 -4.37411e-09 10.278600000000003 0.731801 0.0259123 2.32116e-09 -2.20324e-09 -4.3741e-09 2.22167 -0.733487 -0.20892000000000002 -1.3879000000000003e-13 4.0996600000000003e-13 -1.0640799999999998e-13 0.9373000000000001 -6.73265 -97.19389999999999 19.1824 -12.0173 -36.7361 1.8360700000000003 35.50699999999999 -5.74968 2.94059e-10 -5.16304e-09 4.20603e-09 6.257599999999999e-10 -9.03703e-09 7.245910000000001e-09 2.9404899999999997e-10 -5.16302e-09 4.20605e-09 -7.730909999999999 5.47488 -0.417314 2.94059e-10 -5.16304e-09 4.20604e-09 -2.90554 0.965183 -0.102902 2.94057e-10 -5.16304e-09 4.20603e-09 -10.278600000000003 0.731801 -0.0259123 2.94062e-10 -5.16304e-09 4.20603e-09 -2.22167 -0.733487 0.20892000000000002 -2.03217e-16 0.0 -3.88251e-19 -35.6746 -50.5193 -32.1143 -2.9968599999999994 74.62590000000002 3.34739 0.200984 -21.034 1.4237400000000002 2.03217e-16 0.0 3.88251e-19 43.8339 -45.6912 35.4542 5.28401 80.7875 -6.1769799999999995 3.85245 -7.10829 12.3852
-21.2967 68.8753 -133.851 4.769 7.0379 9.2621 -3.27961 21.5964 -4.51253 4.975259999999999 -12.452399999999999 -0.873535 -6.95206 11.2049 -6.57961 4.85118 -28.6837 -11.3571 -0.0 0.0 0.0 -0.0 0.0 0.0 -1.2012099999999997e-13 2.89603e-13 -1.09749e-13 -4.790089999999999 2.13466 85.9942 -28.3447 -37.6864 79.9208 -0.0162011 -3.54807 -0.499294 1.60773e-09 -2.01097e-09 -3.33341e-09 2.78858e-09 -3.46818e-09 -5.76129e-09 1.60773e-09 -2.01097e-09 -3.33342e-09 7.730909999999999 5.47488 0.417314 1.60773e-09 -2.01097e-09 -3.33341e-09 2.90554 0.965183 0.102902 1.60774e-09 -2.01097e-09 -3.33341e-09 10.278600000000003 0.731801 0.0259123 1.60773e-09 -2.01097e-09 -3.3333999999999997e-09 2.22167 -0.733487 -0.20892000000000002 -1.20144e-13 2.89606e-13 -1.10046e-13 -2.1484199999999998 -6.85211 -97.12580000000001 18.4924 -11.2179 -35.16030000000001 1.42028 31.731 -4.9874 9.206349999999999e-10 -5.186950000000001e-09 3.28207e-09 1.6731000000000001e-09 -9.03569e-09 5.63767e-09 9.20624e-10 -5.18692e-09 3.28209e-09 -7.730909999999999 5.47488 -0.417314 9.206370000000002e-10 -5.186940000000001e-09 3.28208e-09 -2.90554 0.965183 -0.102902 9.206319999999999e-10 -5.186940000000001e-09 3.28207e-09 -10.278600000000003 0.731801 -0.0259123 9.20639e-10 -5.186940000000001e-09 3.28207e-09 -2.22167 -0.733487 0.20892000000000002 -2.03217e-16 0.0 -3.88251e-19 -38.9807 -51.1863 -33.823899999999995 -3.2028399999999997 75.3468 3.53008 -0.15795 -21.020599999999998 0.820271 2.03217e-16 0.0 3.88251e-19 44.477 -44.6898 35.5687 3.64172 77.6118 -4.56576 3.7394299999999996 -6.32727 12.9582
-20.2511 68.3614 -134.195 5.355100000000001 7.939299999999999 10.031 -3.44668 21.4865 -4.59441 4.92421 -12.4309 -0.9141170000000001 -7.04787 10.894800000000002 -6.86603 4.9169 -28.088300000000004 -11.8848 -0.0 0.0 0.0 -0.0 0.0 0.0 -6.73452e-14 1.19987e-13 -5.86648e-15 -6.0712 -0.0702548 86.2046 -28.4166 -36.5371 77.92239999999998 -0.007827539999999997 -2.30749 -0.324446 1.07072e-09 -2.89496e-09 -7.25913e-10 1.8562599999999998e-09 -5.005340000000001e-09 -1.25696e-09 1.07073e-09 -2.89496e-09 -7.25927e-10 7.730909999999999 5.47488 0.417314 1.07072e-09 -2.89496e-09 -7.25913e-10 2.90554 0.965183 0.102902 1.07073e-09 -2.89496e-09 -7.25915e-10 10.278600000000003 0.731801 0.0259123 1.07072e-09 -2.89496e-09 -7.25909e-10 2.22167 -0.733487 -0.20892000000000002 -6.74823e-14 1.19995e-13 -6.007020000000001e-15 -5.54303 -6.49987 -96.69479999999999 18.1115 -10.8049 -34.278099999999995 1.11779 28.5667 -4.38856 1.2169e-09 -4.34045e-09 1.6859800000000002e-09 2.14401e-09 -7.52075e-09 2.87823e-09 1.2168900000000001e-09 -4.34044e-09 1.6860000000000002e-09 -7.730909999999999 5.47488 -0.417314 1.2169e-09 -4.34045e-09 1.6859800000000002e-09 -2.90554 0.965183 -0.102902 1.2168900000000001e-09 -4.34045e-09 1.6859800000000002e-09 -10.278600000000003 0.731801 -0.0259123 1.2169e-09 -4.34044e-09 1.6859699999999995e-09 -2.22167 -0.733487 0.20892000000000002 -2.03217e-16 0.0 -3.88251e-19 -41.8241 -51.6917 -35.1914 -3.4750900000000002 76.22780000000002 3.7960899999999995 -0.904196 -21.0997 -0.55141 2.03217e-16 0.0 3.88251e-19 45.7121 -44.3488 36.6445 2.7686700000000006 74.6933 -3.6814600000000004 3.2514 -5.63421 12.0572
-19.3264 67.6943 -134.447 5.7435 9.4345 10.5406 -3.4599600000000006 21.5722 -4.7641 4.88786 -12.4934 -0.969903 -6.97318 10.6494 -7.317629999999999 4.96413 -27.8424 -12.7673 -0.0 0.0 0.0 -0.0 0.0 0.0 -9.3338e-15 9.31251e-14 -1.0037800000000002e-14 -7.15529 -1.12769 85.8449 -28.406400000000005 -36.4336 77.8078 0.00322729 -0.235128 -0.03310779999999999 1.21645e-09 -2.6717e-09 -8.72089e-10 2.10375e-09 -4.61993e-09 -1.51351e-09 1.21646e-09 -2.6717e-09 -8.721050000000001e-10 7.730909999999999 5.47488 0.417314 1.21645e-09 -2.6717e-09 -8.7209e-10 2.90554 0.965183 0.102902 1.21647e-09 -2.6717e-09 -8.72093e-10 10.278600000000003 0.731801 0.0259123 1.21645e-09 -2.6717e-09 -8.72088e-10 2.22167 -0.733487 -0.20892000000000002 -9.5223e-15 9.31352e-14 -1.01489e-14 -7.90909 -6.13039 -95.76980000000002 18.0358 -10.7237 -34.1048 0.9082109999999999 25.8647 -3.910769999999999 1.33272e-09 -5.5023e-09 1.6411800000000001e-09 2.33456e-09 -9.53832e-09 2.8048e-09 1.33271e-09 -5.5023e-09 1.64119e-09 -7.730909999999999 5.47488 -0.417314 1.33272e-09 -5.5023e-09 1.6411800000000001e-09 -2.90554 0.965183 -0.102902 1.33271e-09 -5.5023e-09 1.64117e-09 -10.278600000000003 0.731801 -0.0259123 1.33272e-09 -5.50229e-09 1.64116e-09 -2.22167 -0.733487 0.20892000000000002 -2.03217e-16 0.0 -3.88251e-19 -43.7573 -52.0617 -35.70259999999999 -3.8785299999999996 77.4075 4.22282 -2.2594400000000006 -20.9398 -3.12501 2.03217e-16 0.0 3.88251e-19 47.6187 -44.6425 38.8139 2.28813 72.35479999999998 -3.15327 2.6262700000000003 -4.80186 10.460799999999999
